<svg width="96" height="40" viewBox="0 0 96 40" fill="none" xmlns="http://www.w3.org/2000/svg">
<g clip-path="url(#clip0)">
<path d="M4.87417 0H90.4371C91.7616 0 93.0331 0.529801 93.8808 1.43046C94.7815 2.33113 95.3112 3.54967 95.3112 4.87417V25.0596C95.3112 26.3841 94.7815 27.6556 93.8808 28.5033C93.1391 29.245 92.0795 29.7748 90.9669 29.9338V37.404C90.9669 39.1523 89.5364 40.4768 87.8411 39.8411C87.2583 39.6291 86.5695 39.0993 85.9338 38.2517L79.4702 29.9338H4.87417C3.54967 29.9338 2.27815 29.404 1.43046 28.5033C0.529801 27.6556 0 26.3841 0 25.0596V4.87417C0 3.54967 0.529801 2.27815 1.43046 1.43046C2.33113 0.529801 3.54967 0 4.87417 0ZM89.1656 28.1324H90.4371C91.2848 28.1324 92.0265 27.7616 92.6093 27.2318C93.1391 26.702 93.5099 25.9073 93.5099 25.0596V4.87417C93.5099 4.02649 93.1391 3.28477 92.6093 2.70199C92.0795 2.17219 91.2848 1.80132 90.4371 1.80132H4.87417C4.02649 1.80132 3.28477 2.17219 2.70199 2.70199C2.17219 3.23179 1.80132 4.02649 1.80132 4.87417V25.0596C1.80132 25.9073 2.17219 26.649 2.70199 27.2318C3.23179 27.7616 4.02649 28.1324 4.87417 28.1324H80.4238C82.9669 31.3113 85.457 34.543 87.947 37.7748C88.3709 38.3046 89.1656 38.4106 89.1656 37.351V28.1324Z" fill="white"/>
<path fill-rule="evenodd" clip-rule="evenodd" d="M85.7221 5.40393H39.4174C37.6691 5.40393 36.2386 6.83439 36.2386 8.52976V21.4039C36.2386 23.1523 37.6691 24.5827 39.4174 24.5827H85.7221C87.4704 24.5827 88.9009 23.1523 88.9009 21.4039V8.58274C88.9009 6.83439 87.4704 5.40393 85.7221 5.40393ZM65.0057 23.0204C65.1688 23.063 65.308 23.0993 65.4835 23.0993C65.7484 23.0993 65.9603 23.0464 66.1193 22.9404C66.2782 22.8874 66.3842 22.7285 66.4372 22.5166L67.2848 19.5497H72.5829L73.4305 22.5166C73.4835 22.7285 73.5895 22.8344 73.7484 22.9404C73.9074 23.0464 74.1193 23.0993 74.3842 23.0993C74.5431 23.0993 74.7551 23.0464 74.967 22.9934C75.1789 22.9404 75.3908 22.8344 75.5498 22.7285C75.7087 22.6225 75.8676 22.5166 75.9736 22.3576C76.0796 22.1987 76.1325 22.0397 76.1325 21.8808C76.1325 21.8808 76.1325 21.7748 76.0796 21.6689L71.7882 7.73511C71.6822 7.41723 71.4703 7.15233 71.0994 6.99339C70.7286 6.83445 70.3577 6.78147 69.9339 6.78147C69.51 6.78147 69.1392 6.83445 68.7683 6.99339C68.3974 7.15233 68.1855 7.41723 68.0795 7.73511L63.7882 21.6689C63.7352 21.7748 63.7352 21.8278 63.7352 21.8808C63.7352 22.0397 63.7882 22.1987 63.8941 22.3576C64.0001 22.5166 64.159 22.6225 64.318 22.7285C64.4769 22.8344 64.6888 22.9404 64.9007 22.9934C64.9371 23.0025 64.9719 23.0116 65.0057 23.0204ZM69.8279 10.5431L71.7352 17.3245H67.9206L69.8279 10.5431ZM46.2516 11.6556C46.2516 11.5298 46.2184 11.3709 46.1783 11.1788C46.1677 11.1281 46.1567 11.0751 46.1456 11.0198C46.0926 10.7549 45.9867 10.543 45.8277 10.2781C45.6688 10.0662 45.4569 9.85425 45.139 9.69531C44.8211 9.53637 44.4503 9.43041 43.9205 9.43041C43.1787 9.43041 42.5959 9.64233 42.1721 10.0662C41.7483 10.49 41.5893 11.1258 41.5893 11.9735V18.1721C41.5893 19.0198 41.8012 19.7086 42.1721 20.0794C42.543 20.4503 43.1787 20.7152 43.9205 20.7152C44.3973 20.7152 44.8211 20.6092 45.139 20.4503C45.4569 20.2913 45.6688 20.0794 45.8277 19.8675C45.9867 19.6556 46.0926 19.3907 46.1456 19.1258L46.1456 19.1257C46.1986 18.8608 46.2516 18.596 46.2516 18.3841C46.3046 18.0662 46.4105 17.8013 46.6754 17.6953C46.9403 17.5364 47.2582 17.4834 47.6291 17.4834C48.1059 17.4834 48.4768 17.5893 48.7417 17.7483C48.9536 17.9602 49.1125 18.3311 49.1125 18.8609C49.1125 19.5496 49.0066 20.1324 48.7417 20.6622C48.4768 21.192 48.1059 21.6688 47.6291 22.0397C47.1522 22.4105 46.6224 22.7284 45.9337 22.9403C45.2979 23.1523 44.5562 23.2582 43.8145 23.2582C43.1257 23.2582 42.49 23.1523 41.8542 22.9933C41.2185 22.8344 40.6887 22.5165 40.2118 22.0927C39.735 21.6688 39.3642 21.192 39.0993 20.5562C38.8344 19.9205 38.6754 19.1258 38.6754 18.2251V11.9735C38.6754 11.0198 38.8344 10.2781 39.0993 9.64233C39.3642 9.00657 39.735 8.47677 40.2118 8.10591C40.6887 7.68207 41.2185 7.41717 41.8542 7.20524C42.49 7.0463 43.1257 6.94034 43.8145 6.94034C44.5562 6.94034 45.2979 7.0463 45.9337 7.25822C46.5695 7.47014 47.1522 7.73505 47.6291 8.10591C48.1059 8.47677 48.4768 8.90061 48.6887 9.43041C48.9536 9.96021 49.0595 10.543 49.0595 11.1788C49.0595 11.7615 48.9536 12.1324 48.6887 12.3443C48.4768 12.5033 48.1059 12.6092 47.6291 12.6092C47.2052 12.6092 46.8873 12.5562 46.6224 12.3973C46.4105 12.2384 46.2516 11.9735 46.2516 11.6556ZM59.0729 15.841H54.0927V22.1986C54.0927 22.5165 53.9338 22.7284 53.6159 22.8874C53.298 23.0463 52.9802 23.0993 52.6093 23.0993C52.2384 23.0993 51.9206 23.0463 51.6027 22.8874C51.2848 22.7284 51.1788 22.5165 51.1788 22.1986V7.84101C51.1788 7.52313 51.3378 7.3112 51.6027 7.15226C51.9206 6.99332 52.2384 6.94034 52.6093 6.94034C52.9802 6.94034 53.298 6.99332 53.6159 7.15226C53.9338 7.3112 54.0927 7.52313 54.0927 7.84101V13.6158H59.0729V7.84101C59.0729 7.52313 59.2318 7.3112 59.4967 7.15226C59.8146 6.99332 60.1325 6.94034 60.5033 6.94034C60.8742 6.94034 61.1921 6.99332 61.51 7.15226C61.8278 7.3112 61.9868 7.52313 61.9868 7.84101V22.2516C61.9868 22.5695 61.8278 22.7814 61.51 22.9403C61.1921 23.0993 60.8742 23.1523 60.5033 23.1523C60.1325 23.1523 59.8146 23.0993 59.4967 22.9403C59.1788 22.7814 59.0729 22.5695 59.0729 22.2516V15.841ZM85.5628 6.94034C85.8807 6.94034 86.0926 7.09928 86.2515 7.36418C86.4105 7.62909 86.4635 7.94697 86.4635 8.26485C86.4635 8.58273 86.4105 8.90061 86.2515 9.16551C86.0926 9.43041 85.8807 9.58935 85.5628 9.58935H82.331V22.2516C82.331 22.5695 82.1721 22.7814 81.8542 22.9403C81.5363 23.0993 81.2184 23.1523 80.8476 23.1523C80.4767 23.1523 80.1588 23.0993 79.8409 22.9403C79.5231 22.7814 79.4171 22.5695 79.4171 22.2516V9.53637H76.1853C75.8674 9.53637 75.6555 9.43041 75.4966 9.16551C75.3376 8.90061 75.2847 8.58273 75.2847 8.26485C75.2847 7.94697 75.3376 7.68207 75.4966 7.36418C75.6555 7.09928 75.8674 6.94034 76.1853 6.94034H85.5628Z" fill="white"/>
<path d="M6.56949 8.37089C6.51651 8.26493 6.51651 8.15897 6.51651 8.15897C6.51651 8.00003 6.56949 7.84109 6.67545 7.68215C6.78141 7.52321 6.94035 7.41725 7.09929 7.31129C7.25823 7.20533 7.47015 7.15235 7.68207 7.04639C7.89399 6.99341 8.10591 6.94043 8.26485 6.94043C8.52976 6.94043 8.74167 6.99341 8.90062 7.09937C9.05956 7.20533 9.16552 7.31129 9.2185 7.52321L12.7152 19.4967L16.1059 7.52321C16.1589 7.31129 16.2649 7.15235 16.4238 7.09937C16.5827 6.99341 16.7947 6.94043 17.0596 6.94043C17.2715 6.94043 17.4304 6.99341 17.6423 7.04639C17.8543 7.09937 18.0662 7.20533 18.2251 7.31129C18.3841 7.41725 18.543 7.52321 18.649 7.68215C18.7549 7.84109 18.8079 8.00003 18.8079 8.15897C18.8079 8.21195 18.8079 8.26493 18.7549 8.37089L14.5165 22.3047C14.4105 22.6225 14.1986 22.8874 13.8278 23.0464C13.4569 23.2053 13.086 23.2583 12.6622 23.2583C12.2384 23.2583 11.8675 23.2053 11.4966 23.0464C11.1258 22.8874 10.9139 22.6225 10.8079 22.3047L6.56949 8.37089Z" fill="white"/>
<path d="M20.5565 7.84109C20.5565 7.62917 20.6624 7.41725 20.8214 7.20533C20.9803 7.04639 21.1922 6.94043 21.5101 6.94043H25.9075C26.6492 6.94043 27.285 6.99341 27.9207 7.15235C28.5565 7.31129 29.0863 7.57619 29.6161 7.89407C30.0929 8.26493 30.4638 8.74175 30.7287 9.32454C30.9936 9.90732 31.1525 10.649 31.1525 11.5497C31.1525 12.8212 30.8876 13.8278 30.3048 14.5166C29.775 15.2583 29.0863 15.7351 28.2386 15.9471L31.1525 21.351C31.2055 21.404 31.2055 21.457 31.2585 21.5629C31.2585 21.6159 31.2585 21.6689 31.2585 21.7219C31.2585 21.8808 31.2055 22.0927 31.0995 22.2517C30.9936 22.4106 30.8346 22.6225 30.6757 22.7285C30.5168 22.8874 30.3048 22.9934 30.0929 23.0464C29.881 23.1523 29.6691 23.2053 29.4571 23.2053C29.2452 23.2053 29.0863 23.1523 28.8744 23.0464C28.7154 22.9404 28.5565 22.7815 28.4505 22.5166L25.3247 16.4239H23.4704V22.1987C23.4704 22.5166 23.3115 22.7285 23.0466 22.8874C22.7287 23.0464 22.4108 23.0994 22.0399 23.0994C21.6691 23.0994 21.3512 23.0464 21.0333 22.8874C20.7154 22.7285 20.5565 22.5166 20.5565 22.1987V7.84109ZM23.4704 9.4305V14.1457H25.9075C26.6492 14.1457 27.232 13.9868 27.6558 13.6159C28.0797 13.2451 28.2916 12.6623 28.2916 11.8146C28.2916 10.9669 28.0797 10.3312 27.6558 9.9603C27.232 9.58944 26.6492 9.4305 25.9075 9.4305H23.4704Z" fill="white"/>
</g>
<defs>
<clipPath id="clip0">
<rect width="95.3642" height="40" fill="white"/>
</clipPath>
</defs>
</svg>
