<svg width="475" height="128" viewBox="0 0 475 128" fill="none" xmlns="http://www.w3.org/2000/svg">
<path d="M50 48L42 45.4V70.6C42 77 46.2 82.8 52.2 84.8L70 90.8V82.8L55.4 78C52.2 77 50 73.8 50 70.4V48Z" fill="white"/>
<path d="M26 40L18 37.4V86.4C18 92.8 22.2 98.6 28.2 100.6L70 114.4V106.4L31.4 93.8C28.2 92.8 26 89.6 26 86.2V40Z" fill="white"/>
<path d="M25.4 19.8L18 25.4L76.6 45C79.8 46 82 49.2 82 52.6V119.4L90 113.4V52.2C90 45.8 85.8 40 79.8 38L25.4 19.8Z" fill="white"/>
<path d="M43.7999 6L36.3999 11.6L96.3999 31.6C99.5999 32.6 101.8 35.8 101.8 39.2V104.4L109.8 98.4V38.8C109.8 32.4 105.6 26.6 99.5999 24.6L43.7999 6Z" fill="white"/>
<path d="M164.972 72.5977C164.972 82.5097 173.372 90.4057 185.72 90.4057C196.304 90.4057 205.544 84.4417 206.048 74.0257C206.552 67.2217 203.192 59.9137 190.256 56.3857L183.116 54.2857C176.9 52.6057 176.228 49.4977 176.228 47.6497C176.228 43.5337 180.092 40.8457 184.88 40.8457C190.256 40.8457 193.532 43.8697 193.532 48.4057H204.284C204.284 37.5697 195.968 30.9337 185.048 30.9337C174.38 30.9337 165.56 37.7377 165.56 47.9017C165.56 53.0257 167.576 60.3337 180.176 64.0297L187.316 65.8777C192.944 67.3897 195.548 69.9097 195.296 73.7737C195.044 77.7217 191.516 80.7457 185.72 80.7457C179.504 80.7457 175.892 76.7977 175.724 72.5977H164.972ZM226.902 50.2537H216.654V108.55H226.902V84.2737C229.002 88.2217 234.042 90.3217 239.166 90.3217C249.414 90.3217 258.318 82.3417 258.318 69.8257C258.318 57.4777 249.414 49.4137 239.166 49.4137C234.042 49.4137 229.002 51.6817 226.902 55.5457V50.2537ZM227.07 69.9937C227.07 63.4417 231.858 59.2417 237.486 59.2417C243.114 59.2417 247.818 63.5257 247.818 69.9937C247.818 76.3777 243.114 80.5777 237.486 80.5777C232.11 80.5777 227.07 76.7977 227.07 69.9937ZM298.93 89.4817H309.178V50.2537H298.93V55.1257C296.074 50.7577 290.278 49.4137 286.75 49.4137C276.418 49.4137 266.758 57.2257 266.758 69.8257C266.758 82.3417 276.418 90.2377 286.75 90.2377C290.614 90.2377 296.41 88.4737 298.93 84.4417V89.4817ZM277.342 69.8257C277.342 63.4417 282.55 59.2417 288.178 59.2417C293.554 59.2417 298.93 63.0217 298.93 69.8257C298.93 76.5457 293.722 80.4097 288.178 80.4097C282.55 80.4097 277.342 76.1257 277.342 69.8257ZM335.911 35.3017H325.747V50.2537H318.607V58.4857H325.747V89.4817H335.911V58.4857H344.227V50.2537H335.911V35.3017ZM363.765 50.2537H353.601V89.4817H363.765V50.2537ZM352.089 35.0497C352.089 38.5777 355.113 41.2657 358.725 41.2657C362.253 41.2657 365.193 38.5777 365.193 35.0497C365.193 31.6057 362.253 28.9177 358.725 28.9177C355.113 28.9177 352.089 31.6057 352.089 35.0497ZM406.755 89.4817H417.003V50.2537H406.755V55.1257C403.899 50.7577 398.103 49.4137 394.575 49.4137C384.243 49.4137 374.583 57.2257 374.583 69.8257C374.583 82.3417 384.243 90.2377 394.575 90.2377C398.439 90.2377 404.235 88.4737 406.755 84.4417V89.4817ZM385.167 69.8257C385.167 63.4417 390.375 59.2417 396.003 59.2417C401.379 59.2417 406.755 63.0217 406.755 69.8257C406.755 76.5457 401.547 80.4097 396.003 80.4097C390.375 80.4097 385.167 76.1257 385.167 69.8257ZM430.296 89.4817H440.544V28.9177H430.296V89.4817Z" fill="white"/>
</svg>
