<?xml version="1.0" encoding="UTF-8"?>
<svg width="401px" height="52px" viewBox="0 0 401 52" version="1.1" xmlns="http://www.w3.org/2000/svg" xmlns:xlink="http://www.w3.org/1999/xlink">
    <title>VentureBeat_logo</title>
    <g id="Page-1" stroke="none" stroke-width="1" fill="none" fill-rule="evenodd">
        <g id="VentureBeat_logo" fill-rule="nonzero">
            <g id="Group" transform="translate(259.000000, 0.000000)" fill="#ED2025">
                <path d="M22.15,0 C27.21,0.14 33.34,0.36 37.04,4.2 C39.2254437,6.78827215 40.4136035,10.0725585 40.39,13.46 C40.5197919,16.4503943 39.3792343,19.3562734 37.25,21.46 C35.7550462,22.7855276 34.0479334,23.8503603 32.2,24.61 C34.4684168,25.1285214 36.5718171,26.20428 38.32,27.74 C40.630289,30.3364171 41.8640368,33.7158132 41.77,37.19 C41.8532051,40.4820414 40.5932535,43.6662171 38.28,46.01 C34.28,50.08 29.02,50.15 23.28,50.29 L0.21,50.29 L0.21,40.03 L4.7,40.1 L4.7,10.19 L0.21,10.26 L0.21,0 L22.15,0 Z M17.77,20.23 C21.83,20.3 22.4,20.3 23.4,20.09 C25.7340122,19.5922102 27.3612402,17.4734237 27.24,15.09 C27.3539133,13.2074033 26.3987876,11.420893 24.77,10.47 C23.63,9.9 22.92,9.9 17.86,9.83 L17.77,20.23 Z M17.77,40.03 L21.77,40.03 C24.54,40.03 28.46,39.96 28.46,35.19 C28.5806041,33.0881328 27.3504874,31.1424581 25.4,30.35 C24.19,29.85 23.62,29.85 17.85,29.85 L17.77,40.03 Z" id="Shape"></path>
                <path d="M79.43,37.61 C78.93,40.25 78.28,43.74 75.01,46.87 C71.74,50 67.01,51.15 62.4,51.15 C52.57,51.15 43.95,46.38 43.95,31.99 C43.9030288,29.4834294 44.2402727,26.984452 44.95,24.58 C47.45,16.1 54.36,12.58 61.95,12.58 C67.65,12.58 72.28,14.58 74.95,17.28 C80.37,22.55 80.09,31.1 80.01,34.38 L57.48,34.38 C57.48,37.23 57.56,42.28 62.18,42.28 C66.03,42.28 66.53,39.01 66.75,37.65 L79.43,37.61 Z M66.77,27.35 C66.8235613,26.3630383 66.7016742,25.3743984 66.41,24.43 C65.7759534,22.720446 64.1003198,21.6249954 62.28,21.73 C58,21.73 57.86,25.86 57.86,27.35 L66.77,27.35 Z" id="Shape"></path>
                <path d="M117.68,40.03 L117.68,50.29 L102.29,50.29 L102.01,46.02 C99.7497285,49.4006208 95.8818066,51.3478671 91.82,51.15 C85.19,51.15 81.06,47.23 81.06,40.1 C80.8996681,36.1786031 82.7945282,32.4570977 86.06,30.28 C90.76,27.07 98.06,27.35 101.66,27.42 C101.753579,26.1154154 101.706642,24.8045511 101.52,23.51 C101.30515,21.9161241 99.9173327,20.7444781 98.31,20.8 C97.4003987,20.7877149 96.5256,21.149202 95.89,21.8 C95.050726,22.786447 94.6466862,24.0707164 94.77,25.36 L82.34,25.36 C82.339925,23.2922346 82.7760891,21.2477151 83.62,19.36 C86.26,14.02 92.96,12.45 98.09,12.45 C102.93,12.45 108.49,13.87 111.55,17.01 C114.33,19.78 114.61,23.01 114.61,25.7 L114.61,40.03 L117.68,40.03 Z M101.68,33.91 C100.34043,33.7482657 98.9822322,33.8467351 97.68,34.2 C95.6434684,34.7432478 94.2716943,36.6461662 94.4,38.75 C94.4,41.24 95.69,42.6 97.61,42.6 C98.9171046,42.6171353 100.135191,41.9395751 100.81,40.82 C101.388907,39.7994515 101.685735,38.6432028 101.67,37.47 L101.68,33.91 Z" id="Shape"></path>
                <path d="M135.63,1.85 L135.63,13.39 L141.54,13.39 L141.54,23.61 L135.63,23.61 L135.63,36.9 C135.7,38.25 135.84,41.03 139.26,41.03 C139.916312,41.0350755 140.567695,40.9163339 141.18,40.68 L141.18,50.08 C138.626478,50.6222125 136.029332,50.9334684 133.42,51.01 C129.29,51.01 126.15,49.86 124.58,48.3 C122.58,46.3 122.52,43.67 122.52,41.6 L122.52,23.61 L119.31,23.61 L119.31,13.39 L123.52,13.39 L123.52,4.61 L135.63,1.85 Z" id="Path"></path>
            </g>
            <g id="Group" fill="#FFFFFF">
                <polygon id="Path" points="0 0 21.59 0 21.59 10.26 17.17 10.19 24.5 38.97 32.41 10.19 28 10.26 28 0 47.8 0 47.8 10.26 44.45 10.19 31.98 50.29 15.74 50.29 3.13 10.19 0 10.26"></polygon>
                <path d="M78.71,37.61 C78.21,40.25 77.57,43.74 74.3,46.87 C71.03,50 66.3,51.15 61.69,51.15 C51.86,51.15 43.24,46.38 43.24,31.99 C43.1887267,29.4831827 43.5260591,26.9835495 44.24,24.58 C46.73,16.1 53.64,12.58 61.24,12.58 C66.94,12.58 71.57,14.58 74.24,17.28 C79.66,22.55 79.37,31.1 79.3,34.38 L56.77,34.38 C56.77,37.23 56.84,42.28 61.47,42.28 C65.32,42.28 65.82,39.01 66.03,37.65 L78.71,37.61 Z M66.03,27.35 C66.0820564,26.3637838 65.9636549,25.3759768 65.68,24.43 C65.0448681,22.7167418 63.3639102,21.6204648 61.54,21.73 C57.27,21.73 57.13,25.86 57.13,27.35 L66.03,27.35 Z" id="Shape"></path>
                <path d="M118.6,40.03 L121.67,40.03 L121.67,50.29 L105.35,50.29 L105.35,28.61 C105.393708,27.7010199 105.299301,26.790668 105.07,25.91 C104.558279,24.6829553 103.327244,23.9130573 102,23.99 C100.983083,23.9902997 100.009414,24.4014043 99.3,25.13 C98.02,26.41 97.94,28.04 97.87,30.13 L97.87,40.13 L100.37,40.13 L100.37,50.29 L81.7,50.29 L81.7,40.03 L84.7,40.03 L84.7,23.61 L81.7,23.61 L81.7,13.39 L96.31,13.39 L96.73,19.02 C97.2918672,17.9023125 98.0391172,16.887946 98.94,16.02 C101.432885,13.5996919 104.796705,12.2873333 108.27,12.38 C112.12,12.38 114.69,13.81 116.04,15.24 C118.46,17.66 118.53,20.65 118.6,23.24 L118.6,40.03 Z" id="Path"></path>
                <path d="M139.33,1.85 L139.33,13.39 L145.24,13.39 L145.24,23.61 L139.33,23.61 L139.33,36.9 C139.4,38.25 139.54,41.03 142.96,41.03 C143.619629,41.0358556 144.274432,40.9171089 144.89,40.68 L144.89,50.08 C142.333094,50.622167 139.732632,50.9334192 137.12,51.01 C132.99,51.01 129.86,49.86 128.29,48.3 C126.29,46.3 126.22,43.67 126.22,41.6 L126.22,23.61 L123.01,23.61 L123.01,13.39 L127.22,13.39 L127.22,4.61 L139.33,1.85 Z" id="Path"></path>
                <path d="M163.62,13.39 L163.62,34.98 C163.62,36.47 163.76,39.89 167.11,39.89 C170.46,39.89 170.6,36.19 170.6,34.27 L170.6,23.61 L167.9,23.68 L167.9,13.39 L183.9,13.39 L183.9,40.1 L186.96,40.03 L186.96,50.29 L171.77,50.29 L171.77,46.16 C170.54138,47.9638397 168.799541,49.3573112 166.77,50.16 C164.977477,50.8680829 163.067309,51.2311165 161.14,51.23 C158.249923,51.3717497 155.424374,50.3446049 153.3,48.38 C150.52,45.68 150.38,42.11 150.3,38.7 L150.3,23.61 L147.3,23.68 L147.3,13.39 L163.62,13.39 Z" id="Path"></path>
                <path d="M204.58,19.8 C205.15,17.8 206.5,12.97 213.58,12.97 C214.760325,12.950439 215.937814,13.0917377 217.08,13.39 L217.08,25.22 C216.051264,24.9761819 214.997224,24.8553364 213.94,24.86 C211.655494,24.7611569 209.417358,25.52505 207.67,27 C205.96,28.71 205.89,30.63 205.89,34 L205.75,40 L210.09,40 L210.09,50.29 L189.83,50.29 L189.83,40.03 L192.89,40.03 L192.89,23.61 L189.83,23.61 L189.83,13.39 L204.15,13.39 L204.58,19.8 Z" id="Path"></path>
                <path d="M255.29,37.61 C254.8,40.25 254.16,43.74 250.88,46.87 C247.6,50 242.88,51.15 238.27,51.15 C228.44,51.15 219.82,46.38 219.82,31.99 C219.768727,29.4831827 220.106059,26.9835495 220.82,24.58 C223.31,16.1 230.22,12.58 237.77,12.58 C243.47,12.58 248.1,14.58 250.77,17.28 C256.18,22.55 255.9,31.1 255.83,34.38 L233.36,34.38 C233.36,37.23 233.43,42.28 238.05,42.28 C241.9,42.28 242.4,39.01 242.62,37.65 L255.29,37.61 Z M242.62,27.35 C242.673561,26.3630383 242.551674,25.3743984 242.26,24.43 C241.631342,22.7161544 239.952089,21.618338 238.13,21.73 C233.85,21.73 233.71,25.86 233.71,27.35 L242.62,27.35 Z" id="Shape"></path>
            </g>
        </g>
    </g>
</svg>