<svg xmlns="http://www.w3.org/2000/svg" fill="none" viewBox="0 0 138 20">
  <g clip-path="url(#clip0)">
    <path fill="#fff" fill-rule="evenodd" d="M23.234 17.612V2.375c0-.787.182-1.387.534-1.781A1.751 1.751 0 0125.13 0c.576 0 1.043.194 1.4.588.358.387.534.987.534 1.787v15.237c0 .8-.182 1.394-.534 1.794a1.817 1.817 0 01-1.4.594c-.551 0-1.006-.2-1.363-.606-.364-.394-.54-.994-.54-1.782h.006zM127.477 20c-5.394 0-9.776-4.485-9.776-9.994 0-5.515 4.382-9.994 9.776-9.994s9.776 4.485 9.776 9.994c0 5.515-4.388 9.994-9.776 9.994zm0-15.94c-3.212 0-5.818 2.667-5.818 5.946 0 3.278 2.606 5.945 5.818 5.945 3.212 0 5.818-2.667 5.818-5.945 0-3.279-2.606-5.946-5.818-5.946zM83.58 20c-5.388 0-9.776-4.485-9.776-9.994 0-5.515 4.388-9.994 9.776-9.994 5.394 0 9.782 4.485 9.782 9.994 0 5.515-4.388 9.994-9.776 9.994h-.006zm0-15.94c-3.206 0-5.818 2.667-5.818 5.946 0 3.278 2.612 5.945 5.818 5.945 3.212 0 5.818-2.667 5.818-5.945 0-3.279-2.606-5.946-5.818-5.946zM114.568 10a10.1 10.1 0 00-1.897-5.903 9.713 9.713 0 00-7.594-4.091L104.786 0l-4.91.006c-.836 0-1.442.194-1.817.588-.376.388-.564 1.018-.564 1.89v15.03c0 .874.182 1.504.564 1.892.375.394.981.588 1.818.588h5.2a9.709 9.709 0 007.594-4.091A10.106 10.106 0 00114.568 10zm-9.091 5.903a23.65 23.65 0 01-1.527.036h-2.564V4.06h2.564c.545 0 1.06 0 1.533.037a5.804 5.804 0 014.097 2.533 6.006 6.006 0 011.03 3.358v.024a6.059 6.059 0 01-1.03 3.357 5.81 5.81 0 01-4.103 2.534zM68.271.085a1.66 1.66 0 00-1.897.709l-5.91 9.181L54.58.794A1.667 1.667 0 0052.67.09a1.764 1.764 0 00-1.2 1.697v16.309a1.733 1.733 0 001.698 1.775c.933 0 1.697-.794 1.697-1.775V7.606l4.181 6.515.013.012v.012c.03.048.062.094.097.14l.048.042.067.085.072.06.049.055.103.079.03.024.122.073.03.018.09.048c.17.08.352.134.534.152h.11l.06.006h.06l.103-.006c.182-.018.364-.073.54-.152l.09-.048.031-.018.115-.073.03-.024.103-.079.061-.055.06-.06.073-.085c.045-.051.085-.106.122-.164l.018-.018v-.012l.012-.012 4.182-6.515v10.49a1.735 1.735 0 001.697 1.776c.94 0 1.697-.794 1.697-1.775V1.782c0-.776-.485-1.467-1.2-1.697h.006zM45.707 19.394H33.022a1.878 1.878 0 01-1.685-1.091 2.223 2.223 0 01.261-2.285l10.37-12.303h-8.57c-.933 0-1.697-.83-1.697-1.849 0-1.03.764-1.648 1.697-1.648h11.558c.666 0 1.357.109 1.957.788.552.612.527 1.94-.09 2.74L36.803 15.683h8.897c.933 0 1.618.83 1.618 1.855 0 1.024-.685 1.855-1.618 1.855h.006zM10.604 20c-2.818 0-5.37-1.14-7.188-3.212C1.81 14.969.89 12.563.89 10.194.889 2.769 6.93 0 10.737 0c3.746 0 6.491 1.878 6.606 1.957a1.94 1.94 0 01.503 2.637 1.802 1.802 0 01-2.545.527 8.988 8.988 0 00-4.564-1.315c-2.388 0-5.678 1.606-5.678 6.388 0 2.72 1.981 5.927 5.606 5.927 2.042 0 3.478-.558 4.315-1.097v-2.83h-2.83a1.873 1.873 0 01-1.837-1.903 1.873 1.873 0 011.836-1.903h4.667c1.018 0 1.843.848 1.843 1.903v5.66c-.001.511-.204 1.001-.564 1.364C16.865 18.55 14.162 20 10.598 20h.006z" clip-rule="evenodd"/>
  </g>
  <defs>
    <clipPath id="clip0">
      <path fill="#fff" d="M0 0h136.364v20H0z" transform="translate(.889)"/>
    </clipPath>
  </defs>
</svg>
