<?xml version="1.0" encoding="UTF-8"?>
<svg width="1000px" height="286px" viewBox="0 0 1000 286" version="1.1" xmlns="http://www.w3.org/2000/svg" xmlns:xlink="http://www.w3.org/1999/xlink">
    <title>BBC_Logo_2021</title>
    <g id="Page-1" stroke="none" stroke-width="1" fill="none" fill-rule="evenodd">
        <g id="BBC_Logo_2021" fill="#FFFFFF" fill-rule="nonzero">
            <path d="M0,0 L0,285.71484 L285.71484,285.71484 L285.71484,0 L0,0 Z M80.08789,64.089836 L140.89844,64.089836 C158.81845,64.089836 172.69969,67.615516 182.54101,74.666016 C192.38233,81.569616 197.30273,91.556106 197.30273,104.62891 C197.30273,112.12006 195.53892,118.65664 192.01367,124.23828 C188.48842,129.67304 183.27471,134.0068 176.37109,137.23828 C185.91864,140.32287 193.18949,145.24327 198.18359,152 C203.32458,158.60984 205.89453,166.68878 205.89453,176.23633 C205.89453,185.63699 203.3984,193.71592 198.4043,200.47266 C193.55708,207.22938 186.57955,212.44309 177.47265,216.11523 C168.36577,219.78737 157.42356,221.62305 144.64453,221.62305 L80.08789,221.62305 L80.08789,64.089836 Z M112.91601,89.646476 L112.91601,128.86523 L137.81445,128.86523 C146.3338,128.86523 152.79656,127.10337 157.20312,123.57812 C161.75656,119.90599 164.0332,114.83795 164.0332,108.375 C164.0332,95.889736 155.2938,89.646476 137.81445,89.646476 L112.91601,89.646476 Z M112.91601,153.54297 L112.91601,196.06641 L141.55859,196.06641 C151.39991,196.06641 158.96603,194.30259 164.2539,190.77734 C169.54178,187.10522 172.18554,181.8915 172.18554,175.13477 C172.18554,160.74001 162.12329,153.54297 142,153.54297 L112.91601,153.54297 Z M714.28515,0 L714.28515,285.71484 L999.99999,285.71484 L999.99999,0 L714.28515,0 Z M868.87694,60.783203 C877.54314,60.783203 885.69591,61.738924 893.33397,63.648438 C901.11891,65.411057 908.31597,68.054831 914.92577,71.580078 L914.92577,102.86719 C908.9035,98.754399 902.36693,95.669681 895.3164,93.613281 C888.26593,91.410001 880.84938,90.308594 873.06444,90.308594 C862.34184,90.308594 853.16148,92.363769 845.52343,96.476562 C838.03227,100.58935 832.22996,106.5393 828.11718,114.32422 C824.15127,122.10915 822.16796,131.58281 822.16796,142.74609 C822.16796,153.90937 824.07745,163.45686 827.89647,171.38867 C831.86237,179.17359 837.51705,185.12159 844.86132,189.23438 C852.3525,193.34717 861.38519,195.4043 871.96093,195.4043 C888.11833,195.4043 903.02911,191.07053 916.68944,182.4043 L916.68944,213.03125 C910.22644,216.70338 902.73417,219.56665 894.21483,221.62305 C885.6955,223.82633 876.73659,224.92773 867.33593,224.92773 C854.85067,224.92773 843.61319,223.09206 833.62499,219.41992 C823.63678,215.6009 815.19071,210.16573 808.2871,203.11523 C801.38349,196.06473 796.09595,187.47298 792.42382,177.33789 C788.75168,167.05592 786.91601,155.52511 786.91601,142.74609 C786.91601,130.26084 788.8255,119.02336 792.64452,109.03516 C796.46354,98.900068 801.97058,90.234489 809.16796,83.037109 C816.36534,75.839729 824.95906,70.330739 834.94726,66.511719 C845.08234,62.692699 856.39168,60.783203 868.87694,60.783203 L868.87694,60.783203 Z M357.14258,0 L357.14258,285.71484 L642.85742,285.71484 L642.85742,0 L357.14258,0 Z M437.23047,64.089844 L498.04102,64.089844 C515.96103,64.089844 529.84227,67.615516 539.68359,74.666016 C549.52491,81.569622 554.44531,91.55611 554.44531,104.62891 C554.44531,112.12006 552.6815,118.65664 549.15625,124.23828 C545.631,129.67304 540.41729,134.0068 533.51367,137.23828 C543.06122,140.32287 550.33207,145.24327 555.32617,152 C560.46716,158.60984 563.03711,166.68878 563.03711,176.23633 C563.03711,185.63699 560.54098,193.71592 555.54688,200.47266 C550.69966,207.22938 543.72213,212.44309 534.61523,216.11523 C525.50835,219.78737 514.56614,221.62305 501.78711,221.62305 L437.23047,221.62305 L437.23047,64.089844 Z M470.05859,89.646484 L470.05859,128.86523 L494.95703,128.86523 C503.47638,128.86523 509.93914,127.10337 514.3457,123.57812 C518.89914,119.90599 521.17578,114.83795 521.17578,108.375 C521.17578,95.889744 512.43638,89.646484 494.95703,89.646484 L470.05859,89.646484 Z M470.05859,153.54297 L470.05859,196.06641 L498.70117,196.06641 C508.54249,196.06641 516.10861,194.30259 521.39648,190.77734 C526.68436,187.10522 529.32812,181.8915 529.32812,175.13477 C529.32812,160.74001 519.26587,153.54297 499.14258,153.54297 L470.05859,153.54297 Z" id="path1314-6"></path>
        </g>
    </g>
</svg>