<svg xmlns="http://www.w3.org/2000/svg" fill="none" viewBox="0 0 141 20">
  <path fill="#fff" d="M26.383 6.667H39.46V0H26.383v6.667zM.253 0v6.667h6.526V20h6.527V6.667h6.55V0H.253z"/>
  <path fill="#fff" d="M19.856 20H39.46v-6.667H26.383V6.666h-6.527V20zM56.127 5.035h-9.604V7.81h3.217v8.695h3.17V7.809h3.217V5.035zM59.74 7.716c-2.261 0-3.94 1.515-3.94 4.499 0 2.634 1.422 4.475 4.01 4.475 1.351 0 2.447-.35 3.496-.979l-1.119-1.888c-.862.443-1.468.606-2.238.606-.792 0-1.352-.42-1.468-1.375h5.058c.023-.14.023-.327.023-.583.024-3.193-1.445-4.755-3.822-4.755zm-1.212 3.496c.093-.862.466-1.305 1.142-1.305.862 0 1.165.443 1.305 1.305h-2.447zM69.18 14.29c-.792 0-1.212-.7-1.212-2.075 0-1.352.373-2.122 1.142-2.122.63 0 .91.35 1.329 1.12l2.028-1.54c-.746-1.211-1.678-1.957-3.31-1.957-2.75 0-4.103 1.818-4.103 4.452 0 2.89 1.516 4.499 4.033 4.499 1.515 0 2.448-.583 3.45-2.051l-1.865-1.469c-.56.84-.932 1.142-1.492 1.142zM79.344 7.716c-1.026 0-1.632.35-2.168.746V4.569l-2.96 1.189v10.769h2.96v-4.919c0-1.072.373-1.375 1.002-1.375.606 0 .98.303.98 1.399v4.895h2.96v-5.268c0-2.261-.91-3.543-2.774-3.543zM89.227 13.916c-1.375 0-1.935-1.399-1.935-3.147 0-1.818.583-3.147 1.912-3.147 1.049 0 1.445.676 1.841 1.748l2.89-1.142c-.792-2.168-1.91-3.38-4.731-3.38-3.077 0-5.245 2.238-5.245 5.92 0 3.404 1.818 5.922 5.221 5.922 2.728 0 4.01-1.469 4.779-2.96l-2.68-1.423c-.63 1.073-1.05 1.609-2.052 1.609zM98.714 8.532v-.63h-2.96v8.602h2.96v-4.686c0-1.049.443-1.398 1.165-1.398.583 0 1.003.303 1.376.722l.699-3.053c-.35-.21-.769-.373-1.399-.373-.769 0-1.352.326-1.841.816zM108.271 12.82c0 1.073-.373 1.376-.979 1.376s-.979-.303-.979-1.399V7.902h-2.96v5.268c0 2.261.909 3.52 2.797 3.52 1.002 0 1.632-.35 2.144-.746v.583h2.961V7.926h-2.961v4.895M118.504 7.716c-1.026 0-1.632.35-2.168.746v-.583h-2.96v8.601h2.96v-4.918c0-1.072.373-1.375 1.003-1.375.606 0 .979.303.979 1.398v4.895h2.96v-5.268c0-2.214-.886-3.496-2.774-3.496zM127.152 14.29c-.792 0-1.212-.7-1.212-2.075 0-1.352.373-2.122 1.119-2.122.63 0 .909.35 1.329 1.12l2.028-1.54c-.746-1.211-1.678-1.957-3.31-1.957-2.751 0-4.103 1.818-4.103 4.452 0 2.89 1.515 4.499 4.033 4.499 1.515 0 2.447-.583 3.45-2.051l-1.865-1.469c-.513.84-.909 1.142-1.469 1.142zM137.316 7.716c-1.026 0-1.632.35-2.168.746V4.569l-2.961 1.189v10.769h2.961v-4.919c0-1.072.373-1.375 1.002-1.375.606 0 .979.303.979 1.399v4.895h2.96v-5.268c.024-2.261-.885-3.543-2.773-3.543z"/>
</svg>
