<svg xmlns="http://www.w3.org/2000/svg" fill="none" viewBox="0 0 89 24">
  <g clip-path="url(#clip0)">
    <path fill="#fff" d="M50.355 8.089c0-2.578.045-4.978.178-7.2l-6.8 1.289V2.8l.667.089c.489.044.8.222.978.489.178.31.31.755.4 1.422.089 1.289.178 4.222.133 8.844 0 4.578-.044 7.467-.133 8.578 2.444.533 4.355.756 5.778.756 2.666 0 4.755-.756 6.266-2.312 1.511-1.51 2.311-3.644 2.311-6.266 0-2.09-.578-3.822-1.733-5.2-1.156-1.378-2.622-2.045-4.356-2.045-1.155 0-2.355.311-3.688.934zm.134 13.689c-.089-1.423-.178-5.69-.178-12.667.4-.133.933-.222 1.6-.222 1.067 0 1.911.533 2.533 1.644.623 1.111.934 2.445.934 4.133 0 2.09-.356 3.778-1.067 5.2-.711 1.378-1.6 2.09-2.711 2.09a8.289 8.289 0 00-1.111-.178zM18.222 1.333H.444v.889l.934.089c.71.133 1.2.4 1.51.8.312.444.49 1.155.534 2.133.356 4.8.356 9.29 0 13.422-.089.978-.266 1.69-.533 2.134-.311.444-.8.71-1.511.8l-.934.133v.889h11.467v-.889l-1.2-.089c-.711-.089-1.2-.4-1.511-.8-.311-.444-.489-1.155-.533-2.133a81.65 81.65 0 01-.223-6.089l2.4.044c1.29.045 2.178 1.023 2.623 2.978h.888V8.4h-.888c-.445 1.91-1.29 2.889-2.623 2.933l-2.4.045c0-4 .09-6.845.223-8.578h3.51c2.49 0 4.178 1.6 5.156 4.8l1.067-.311-.178-5.956zm-2.089 13.689c0 2.311.667 4.222 1.956 5.733 1.289 1.511 3.2 2.223 5.6 2.223 2.4 0 4.355-.756 5.778-2.312 1.422-1.51 2.088-3.422 2.088-5.733 0-2.311-.666-4.222-1.955-5.733-1.289-1.511-3.2-2.222-5.6-2.222-2.4 0-4.356.755-5.778 2.31-1.422 1.512-2.089 3.423-2.089 5.734zm9.911-5.067c.534 1.29.756 2.978.756 5.023 0 4.71-.978 7.022-2.889 7.022-.978 0-1.733-.667-2.267-2-.533-1.334-.755-3.022-.755-5.022 0-4.667.978-6.978 2.889-6.978.978-.045 1.733.622 2.266 1.955zm37.556 10.8c1.467 1.467 3.333 2.223 5.556 2.223 1.377 0 2.577-.267 3.644-.845 1.067-.533 1.911-1.2 2.489-2l-.445-.533c-.977.755-2.088 1.11-3.377 1.11-1.778 0-3.156-.577-4.09-1.777-.977-1.2-1.421-2.711-1.333-4.667h9.511c0-2.133-.533-3.866-1.644-5.244-1.111-1.333-2.667-2-4.667-2-2.489 0-4.4.8-5.777 2.356-1.378 1.555-2.045 3.466-2.045 5.733 0 2.311.711 4.178 2.178 5.644zM66.889 9.6c.489-1.067 1.11-1.6 1.955-1.6 1.334 0 2 1.689 2 5.11l-4.71.09c.044-1.334.266-2.534.755-3.6zM87.51 7.822c-1.2-.533-2.711-.844-4.533-.844-1.867 0-3.334.488-4.445 1.422-1.11.933-1.689 2.089-1.689 3.466 0 1.2.356 2.134 1.023 2.8.666.667 1.733 1.245 3.11 1.734 1.245.444 2.134.889 2.578 1.289.445.444.712.933.712 1.6 0 .622-.223 1.2-.712 1.644-.444.489-1.066.711-1.866.711-1.956 0-3.422-1.422-4.445-4.266l-.755.222.178 4.444c1.6.622 3.377.934 5.333.934 2.044 0 3.6-.445 4.755-1.378 1.156-.89 1.734-2.178 1.734-3.778 0-1.067-.267-1.956-.845-2.622-.577-.667-1.51-1.245-2.844-1.778-1.467-.533-2.489-1.022-3.022-1.467-.534-.444-.8-.977-.8-1.644 0-.667.178-1.2.578-1.645.4-.444.888-.622 1.51-.622 1.778 0 3.067 1.29 3.867 3.822l.756-.222-.178-3.822zm-42.755-.4c-.623-.311-1.29-.444-2.045-.444-.755 0-1.511.31-2.355.933-.845.622-1.467 1.467-1.956 2.622l.044-3.555L31.69 8.31v.622l.666.045c.845.088 1.334.755 1.423 1.955.266 2.756.266 5.689 0 8.8-.09 1.2-.578 1.822-1.422 1.956l-.667.089v.844h9.422v-.844l-1.2-.09c-.844-.088-1.333-.755-1.422-1.955a45.402 45.402 0 01-.089-8.178c.267-.444.844-.71 1.733-.8.89-.089 1.911.178 2.978.8l1.645-4.133z"/>
  </g>
  <defs>
    <clipPath id="clip0">
      <path fill="#fff" d="M0 0h88.889v24H0z"/>
    </clipPath>
  </defs>
</svg>
