<svg xmlns:xlink="http://www.w3.org/1999/xlink" width="157" height="26" viewBox="0 0 157 26" fill="none" xmlns="http://www.w3.org/2000/svg"><path fill-rule="evenodd" clip-rule="evenodd" d="M23.44 0.143127C23.2832 0.110097 23.1263 0.055051 22.9694 0H22.0619C21.1743 0.223339 20.475 0.754883 19.7619 1.29691L19.6865 1.35421C18.4988 2.26805 16.8741 2.26805 15.7537 1.3432C15.0478 0.759679 14.3307 0.253225 13.4343 0H12.538C11.5856 0.220195 10.8461 0.7817 10.0954 1.35421C8.89647 2.26805 7.26058 2.26805 6.12894 1.31017C5.42301 0.715641 4.69473 0.231208 3.79836 0H2.90199C2.68911 0.0770678 2.46502 0.154136 2.24094 0.231199V0.231204L2.24092 0.231208C1.15408 0.62756 0.481797 1.39825 0.14566 2.4662C0.123251 2.53225 0.0980403 2.59834 0.0728298 2.66439C0.0476198 2.73044 0.0224092 2.79649 0 2.86254V3.74335C0.224092 4.65718 0.739502 5.37282 1.37817 6.05543C2.38658 7.18943 2.39779 8.87394 1.40058 9.98593C0.773118 10.6795 0.257706 11.4062 0.0112046 12.309V13.1898C0.246502 14.0926 0.773118 14.8082 1.40058 15.5129C2.37538 16.6138 2.38658 18.2983 1.41178 19.3993C0.784322 20.115 0.235297 20.8416 0.0112046 21.7775V22.6583C0.100834 22.8674 0.179261 23.0876 0.257687 23.3078L0.257706 23.3078C0.66107 24.3758 1.43419 25.0474 2.52104 25.3777C2.58826 25.3997 2.65549 25.4245 2.72272 25.4492C2.78995 25.474 2.85718 25.4988 2.9244 25.5208H3.82077C4.73953 25.2896 5.46786 24.7721 6.18494 24.1556C7.32782 23.1757 9.0533 23.1757 10.185 24.1666C10.9021 24.7832 11.6416 25.2896 12.5604 25.5208H13.4567C13.5487 25.4907 13.6407 25.456 13.7337 25.4209L13.7338 25.4208H13.7339C13.8448 25.379 13.9572 25.3365 14.073 25.3006C15.5632 24.7942 16.5492 23.2638 16.3139 21.8105C16.045 20.115 14.7789 18.97 13.1094 18.9039C12.1346 18.8709 11.3166 19.1902 10.6108 19.8287C9.65839 20.6985 8.5603 21.1059 7.27178 20.7425C4.77318 20.0489 3.8992 17.0543 5.66954 15.1936C6.46506 14.3568 6.82362 13.41 6.70034 12.287C6.6053 11.4462 6.10186 10.8304 5.59386 10.2092L5.59377 10.2091L5.59368 10.209C5.56294 10.1714 5.53215 10.1337 5.50146 10.096C3.6415 7.817 5.38942 5.17462 7.39502 4.69021C8.62755 4.39294 9.65839 4.76727 10.5548 5.62601C11.9217 6.92518 13.9834 7.02426 15.2383 5.72513C16.65 4.2718 18.8573 4.22777 20.2803 5.73614C21.2215 6.72703 22.7902 6.89216 24.0227 6.29762C25.3112 5.67005 26.0059 4.39294 25.8602 2.88456C25.7482 1.64047 24.7286 0.495441 23.44 0.143127ZM22.566 21.1498C21.905 21.1388 21.4008 21.6123 21.4008 22.2729C21.4008 22.9335 21.8938 23.4289 22.5436 23.4179C23.1823 23.4179 23.7201 22.8784 23.7089 22.2619C23.6977 21.6673 23.1823 21.1608 22.566 21.1498ZM21.4008 13.0137C21.412 12.3531 21.8938 11.8907 22.5773 11.9017C23.2047 11.9127 23.7089 12.4192 23.7089 13.0247C23.7089 13.6413 23.1599 14.1808 22.5324 14.1808C21.8938 14.1697 21.4008 13.6523 21.4008 13.0137ZM12.9524 14.2469C13.6023 14.2579 14.1065 13.7625 14.1065 13.1129C14.1177 12.4523 13.6247 11.9678 12.9524 11.9788C12.3249 11.9899 11.8207 12.4743 11.7983 13.0799C11.7759 13.6964 12.3137 14.2359 12.9524 14.2469Z" fill="#F8BF1E"></path><path d="M38.7239 24.5409C41.6585 24.5409 43.7796 23.7387 45.3774 22.22C46.8011 20.8734 47.7309 19.0109 47.8762 16.9766H42.7336C42.5011 18.9536 40.9902 20.3863 38.6949 20.3863C35.615 20.3863 33.6973 17.6642 33.6973 13.9107C33.6973 10.1858 35.2954 7.4065 38.6658 7.4065C40.874 7.4065 42.3268 8.81049 42.5883 10.6443H47.7309C47.4694 8.35204 46.4234 6.34634 44.622 4.99965C43.1403 3.88219 41.1065 3.19452 38.6949 3.19452C32.5061 3.19452 28.4673 7.80764 28.4673 13.9107C28.4673 20.0424 32.6223 24.5409 38.7239 24.5409ZM56.9683 21.2172C54.9054 21.2172 53.8303 19.4407 53.8303 16.776C53.8303 14.1113 54.9054 12.3061 56.9683 12.3061C59.0312 12.3061 60.1353 14.1113 60.1353 16.776C60.1353 19.4407 59.0312 21.2172 56.9683 21.2172ZM56.9974 24.5409C61.7915 24.5409 64.9295 21.1885 64.9295 16.776C64.9295 12.3634 61.7915 9.01106 56.9974 9.01106C52.2323 9.01106 49.0362 12.3634 49.0362 16.776C49.0362 21.1885 52.2323 24.5409 56.9974 24.5409ZM95.3902 19.8115V7.8346H98.4701C101.695 7.8346 103.526 10.2414 103.526 13.9663C103.526 17.7199 101.782 19.8115 98.4119 19.8115H95.3902ZM90.2474 24.0808H98.7897C101.405 24.0808 103.497 23.4218 105.124 22.2184C107.448 20.4705 108.727 17.5766 108.727 13.9663C108.727 7.69134 104.862 3.59397 99.1093 3.59397H90.2474V24.0808ZM117.707 24.5106C119.596 24.5106 121.107 24.0235 122.356 23.1639C123.664 22.2757 124.535 21.0149 124.855 19.6969H120.235C119.828 20.6138 119.015 21.1582 117.766 21.1582C115.819 21.1582 114.715 19.9261 114.424 17.9491H125.117C125.146 14.9692 124.274 12.4191 122.502 10.8145C121.223 9.66839 119.538 8.98072 117.417 8.98072C112.884 8.98072 109.775 12.3331 109.775 16.717C109.775 21.1582 112.797 24.5106 117.707 24.5106ZM114.453 15.1697C114.773 13.4219 115.703 12.3045 117.504 12.3045C119.044 12.3045 120.148 13.4219 120.322 15.1697H114.453ZM133.036 24.5392C136.93 24.5392 139.806 22.8774 139.806 19.6682C139.806 15.9147 136.726 15.2557 134.111 14.8259C132.223 14.4821 130.537 14.3388 130.537 13.3073C130.537 12.3904 131.438 11.9606 132.6 11.9606C133.908 11.9606 134.809 12.3618 134.983 13.6798H139.341C139.109 10.7858 136.842 8.98072 132.629 8.98072C129.114 8.98072 126.208 10.5853 126.208 13.6798C126.208 17.1181 128.968 17.8058 131.554 18.2356C133.53 18.5794 135.332 18.7227 135.332 20.0407C135.332 20.9863 134.431 21.502 133.007 21.502C131.438 21.502 130.45 20.7857 130.276 19.3244H125.801C125.947 22.5622 128.678 24.5392 133.036 24.5392ZM141.343 24.0808H146.021V19.5823L147.445 18.0923L151.019 24.0808H156.51L150.67 14.9119L155.9 9.41051H150.438L146.021 14.3675V3.59397H141.343V24.0808Z" fill="#FFFFFF"></path><path d="M78.55 24.0808H73.8139V9.41051H78.3756V11.4162H78.4628C79.5669 9.8403 80.9906 8.98072 83.0536 8.98072C86.3078 8.98072 88.2254 11.2729 88.2254 14.5394V24.0808H83.4894V15.4849C83.4894 13.9377 82.7049 12.8775 81.165 12.8775C79.596 12.8775 78.55 14.1669 78.55 15.972V24.0808Z" fill="#FFFFFF"></path><path d="M65.9615 12.4247L65.9616 9.44238H71.8059V24.1168H67.2996V12.4247H65.9615Z" fill="#FFFFFF"></path><ellipse cx="69.2185" cy="5.61464" rx="2.58793" ry="2.55208" fill="#FFFFFF"></ellipse></svg>