<svg width="24" height="24" viewBox="0 0 24 24" fill="none" xmlns="http://www.w3.org/2000/svg">
<path d="M15.2 6.40732L12.2 5.40732C11.749 5.25674 11.2686 5.21554 10.7985 5.2871C10.3284 5.35866 9.88207 5.54094 9.49627 5.81891C9.11048 6.09688 8.79628 6.46257 8.57959 6.88584C8.36291 7.3091 8.24994 7.77781 8.25 8.25332V12.7533L6.459 11.3173C6.33672 11.2194 6.19538 11.1479 6.04398 11.1076C5.89259 11.0672 5.73445 11.0588 5.57963 11.0829C5.42481 11.1069 5.27669 11.163 5.14471 11.2474C5.01272 11.3319 4.89976 11.4428 4.813 11.5733V11.5733C4.68926 11.7588 4.62322 11.9768 4.62322 12.1998C4.62322 12.4228 4.68926 12.6408 4.813 12.8263L7.382 16.6803C7.80661 17.317 8.3818 17.8391 9.05654 18.2001C9.73128 18.5612 10.4847 18.7502 11.25 18.7503H13.489C14.4864 18.7507 15.4432 18.355 16.149 17.6503C16.8535 16.9447 17.2491 15.9884 17.249 14.9913V9.25332C17.2492 8.62397 17.0514 8.0105 16.6837 7.49975C16.3159 6.989 15.7969 6.60682 15.2 6.40732V6.40732Z" stroke="#FF0F9F" stroke-width="1.5" stroke-linecap="round" stroke-linejoin="round"/>
<path d="M6.75 23.25H17.25L23.25 17.25V6.75L17.25 0.75H6.75L0.75 6.75V17.25L6.75 23.25Z" stroke="#FF0F9F" stroke-width="1.5" stroke-linecap="round" stroke-linejoin="round"/>
</svg>
