<svg width="25" height="25" viewBox="0 0 25 25" fill="none" xmlns="http://www.w3.org/2000/svg">
<g clip-path="url(#clip0)">
<path d="M15.1511 16.5859H14.4011C14.0033 16.5859 13.6218 16.4279 13.3405 16.1466C13.0592 15.8653 12.9011 15.4838 12.9011 15.0859V11.3359C12.9011 11.137 12.8221 10.9463 12.6815 10.8056C12.5408 10.665 12.35 10.5859 12.1511 10.5859H11.4011" stroke="#002AFF" stroke-width="1.5" stroke-linecap="round" stroke-linejoin="round"/>
<path d="M12.5261 6.83594C12.452 6.83594 12.3795 6.85793 12.3178 6.89914C12.2561 6.94034 12.2081 6.99891 12.1797 7.06743C12.1513 7.13595 12.1439 7.21135 12.1583 7.2841C12.1728 7.35684 12.2085 7.42366 12.261 7.4761C12.3134 7.52855 12.3802 7.56426 12.453 7.57873C12.5257 7.5932 12.6011 7.58577 12.6696 7.55739C12.7382 7.52901 12.7967 7.48094 12.8379 7.41928C12.8791 7.35761 12.9011 7.28511 12.9011 7.21094C12.9011 7.11148 12.8616 7.0161 12.7913 6.94577C12.721 6.87545 12.6256 6.83594 12.5261 6.83594Z" stroke="#002AFF" stroke-width="1.5" stroke-linecap="round" stroke-linejoin="round"/>
<path d="M1.65112 12.0859C1.65112 15.0696 2.83639 17.9311 4.94617 20.0409C7.05596 22.1507 9.91744 23.3359 12.9011 23.3359C15.8848 23.3359 18.7463 22.1507 20.8561 20.0409C22.9659 17.9311 24.1511 15.0696 24.1511 12.0859C24.1511 9.10225 22.9659 6.24077 20.8561 4.13099C18.7463 2.0212 15.8848 0.835938 12.9011 0.835938C9.91744 0.835938 7.05596 2.0212 4.94617 4.13099C2.83639 6.24077 1.65112 9.10225 1.65112 12.0859V12.0859Z" stroke="#002AFF" stroke-width="1.5" stroke-linecap="round" stroke-linejoin="round"/>
</g>
<defs>
<clipPath id="clip0">
<rect width="24" height="24" fill="white" transform="translate(0.901123 0.0859375)"/>
</clipPath>
</defs>
</svg>
