<svg width="24" height="24" viewBox="0 0 24 24" fill="none" xmlns="http://www.w3.org/2000/svg">
<path d="M6.75 9.00002L10.044 13.611C10.1796 13.8009 10.3569 13.9571 10.5623 14.0677C10.7677 14.1783 10.9958 14.2403 11.2289 14.249C11.462 14.2577 11.694 14.2128 11.9071 14.1178C12.1202 14.0228 12.3086 13.8802 12.458 13.701L23.25 0.749023" stroke="#70FF00" stroke-width="1.5" stroke-linecap="round" stroke-linejoin="round"/>
<path d="M16.783 3.8244C14.644 2.50069 12.1005 1.98991 9.6163 2.38522C7.13211 2.78053 4.87277 4.05559 3.25032 5.97787C1.62788 7.90014 0.750427 10.3416 0.777998 12.8569C0.805569 15.3721 1.73632 17.7937 3.40052 19.68C5.06471 21.5662 7.35146 22.7915 9.84372 23.1322C12.336 23.473 14.8677 22.9066 16.9771 21.5363C19.0866 20.166 20.6332 18.0832 21.335 15.6676C22.0368 13.252 21.8469 10.6647 20.8 8.3774" stroke="#70FF00" stroke-width="1.5" stroke-linecap="round" stroke-linejoin="round"/>
</svg>
